<svg width="20" height="20" viewBox="0 0 20 20" fill="none" xmlns="http://www.w3.org/2000/svg">
<path fill-rule="evenodd" clip-rule="evenodd" d="M1.771 2.49992C1.771 2.09721 2.09746 1.77075 2.50016 1.77075H8.3335C8.7362 1.77075 9.06266 2.09721 9.06266 2.49992V8.33325C9.06266 8.73596 8.7362 9.06242 8.3335 9.06242H2.50016C2.09746 9.06242 1.771 8.73596 1.771 8.33325V2.49992ZM3.22933 3.22909V7.60408H7.60433V3.22909H3.22933Z" fill="#6C727F"/>
<path fill-rule="evenodd" clip-rule="evenodd" d="M10.9377 2.49992C10.9377 2.09721 11.2641 1.77075 11.6668 1.77075H17.5002C17.9029 1.77075 18.2293 2.09721 18.2293 2.49992V8.33325C18.2293 8.73596 17.9029 9.06242 17.5002 9.06242H11.6668C11.2641 9.06242 10.9377 8.73596 10.9377 8.33325V2.49992ZM12.396 3.22909V7.60408H16.771V3.22909H12.396Z" fill="#6C727F"/>
<path fill-rule="evenodd" clip-rule="evenodd" d="M10.9377 11.6666C10.9377 11.2639 11.2641 10.9374 11.6668 10.9374H17.5002C17.9029 10.9374 18.2293 11.2639 18.2293 11.6666V17.4999C18.2293 17.9026 17.9029 18.2291 17.5002 18.2291H11.6668C11.2641 18.2291 10.9377 17.9026 10.9377 17.4999V11.6666ZM12.396 12.3958V16.7708H16.771V12.3958H12.396Z" fill="#6C727F"/>
<path fill-rule="evenodd" clip-rule="evenodd" d="M1.771 11.6666C1.771 11.2639 2.09746 10.9374 2.50016 10.9374H8.3335C8.7362 10.9374 9.06266 11.2639 9.06266 11.6666V17.4999C9.06266 17.9026 8.7362 18.2291 8.3335 18.2291H2.50016C2.09746 18.2291 1.771 17.9026 1.771 17.4999V11.6666ZM3.22933 12.3958V16.7708H7.60433V12.3958H3.22933Z" fill="#6C727F"/>
</svg>
